HIERARCHY
ROOT Hips
{
    OFFSET   0.000000   0.000000   0.000000
    CHANNELS 6 Xposition Yposition Zposition Zrotation Xrotation Yrotation
    JOINT Chest
    {
        OFFSET   0.000000   8.007240   0.000000
        CHANNELS 3 Zrotation Xrotation Yrotation
        JOINT Chest2
        {
            OFFSET   0.000000  22.077100   0.000000
            CHANNELS 3 Zrotation Xrotation Yrotation
            JOINT Neck
            {
                OFFSET   0.000000  23.254800   0.000000
                CHANNELS 3 Zrotation Xrotation Yrotation
                JOINT Head
                {
                    OFFSET   0.000000  14.370000   1.956600
                    CHANNELS 3 Zrotation Xrotation Yrotation
                    End Site
                    {
                        OFFSET   0.000000  19.566000   0.000000
                    }
                }
            }
            JOINT LeftCollar
            {
                OFFSET   3.911900  19.017000  -0.467064
                CHANNELS 3 Zrotation Xrotation Yrotation
                JOINT LeftShoulder
                {
                    OFFSET  10.383700   0.000000   0.000000
                    CHANNELS 3 Zrotation Xrotation Yrotation
                    JOINT LeftElbow
                    {
                        OFFSET  26.662100   0.001476   0.000517
                        CHANNELS 3 Zrotation Xrotation Yrotation
                        JOINT LeftWrist
                        {
                            OFFSET  28.869000  -0.000025  -0.000106
                            CHANNELS 3 Zrotation Xrotation Yrotation
                            JOINT LeftFinger0
                            {
                                OFFSET   2.044660  -2.323460   3.252850
                                CHANNELS 3 Zrotation Xrotation Yrotation
                                JOINT LeftFinger01
                                {
                                    OFFSET   3.088130   0.000000   0.000000
                                    CHANNELS 3 Zrotation Xrotation Yrotation
                                    JOINT LeftFinger02
                                    {
                                        OFFSET   2.639460   0.000000   0.000000
                                        CHANNELS 3 Zrotation Xrotation Yrotation
                                        End Site
                                        {
                                            OFFSET   2.582190   0.000000   0.000000
                                        }
                                    }
                                }
                            }
                            JOINT LeftFinger1
                            {
                                OFFSET   8.364480   0.000000   3.252850
                                CHANNELS 3 Zrotation Xrotation Yrotation
                                JOINT LeftFinger11
                                {
                                    OFFSET   4.646930   0.000000   0.000000
                                    CHANNELS 3 Zrotation Xrotation Yrotation
                                    JOINT LeftFinger12
                                    {
                                        OFFSET   2.323460   0.000000   0.000000
                                        CHANNELS 3 Zrotation Xrotation Yrotation
                                        End Site
                                        {
                                            OFFSET   2.273050   0.000000   0.000000
                                        }
                                    }
                                }
                            }
                            JOINT LeftFinger2
                            {
                                OFFSET   8.364490   0.000015   1.078090
                                CHANNELS 3 Zrotation Xrotation Yrotation
                                JOINT LeftFinger21
                                {
                                    OFFSET   5.111620   0.000000   0.000000
                                    CHANNELS 3 Zrotation Xrotation Yrotation
                                    JOINT LeftFinger22
                                    {
                                        OFFSET   2.788160   0.000016   0.000000
                                        CHANNELS 3 Zrotation Xrotation Yrotation
                                        End Site
                                        {
                                            OFFSET   2.727660   0.000000   0.000000
                                        }
                                    }
                                }
                            }
                            JOINT LeftFinger3
                            {
                                OFFSET   7.899780   0.000017  -1.078090
                                CHANNELS 3 Zrotation Xrotation Yrotation
                                JOINT LeftFinger31
                                {
                                    OFFSET   4.646930   0.000000   0.000000
                                    CHANNELS 3 Zrotation Xrotation Yrotation
                                    JOINT LeftFinger32
                                    {
                                        OFFSET   2.323470   0.000000   0.000000
                                        CHANNELS 3 Zrotation Xrotation Yrotation
                                        End Site
                                        {
                                            OFFSET   2.273050   0.000000   0.000000
                                        }
                                    }
                                }
                            }
                            JOINT LeftFinger4
                            {
                                OFFSET   7.435090   0.000000  -3.252850
                                CHANNELS 3 Zrotation Xrotation Yrotation
                                JOINT LeftFinger41
                                {
                                    OFFSET   3.717550   0.000000   0.000000
                                    CHANNELS 3 Zrotation Xrotation Yrotation
                                    JOINT LeftFinger42
                                    {
                                        OFFSET   1.858770   0.000000   0.000000
                                        CHANNELS 3 Zrotation Xrotation Yrotation
                                        End Site
                                        {
                                            OFFSET   1.818440   0.000000   0.000000
                                        }
                                    }
                                }
                            }
                        }
                    }
                }
            }
            JOINT RightCollar
            {
                OFFSET  -3.911900  19.017000  -0.467063
                CHANNELS 3 Zrotation Xrotation Yrotation
                JOINT RightShoulder
                {
                    OFFSET -10.383700   0.000019   0.000000
                    CHANNELS 3 Zrotation Xrotation Yrotation
                    JOINT RightElbow
                    {
                        OFFSET -26.662100   0.001175   0.000102
                        CHANNELS 3 Zrotation Xrotation Yrotation
                        JOINT RightWrist
                        {
                            OFFSET -28.869000   0.000016  -0.000079
                            CHANNELS 3 Zrotation Xrotation Yrotation
                            JOINT RightFinger0
                            {
                                OFFSET  -2.044660  -2.323490   3.252850
                                CHANNELS 3 Zrotation Xrotation Yrotation
                                JOINT RightFinger01
                                {
                                    OFFSET  -3.088140   0.000000   0.000000
                                    CHANNELS 3 Zrotation Xrotation Yrotation
                                    JOINT RightFinger02
                                    {
                                        OFFSET  -2.639460   0.000000   0.000000
                                        CHANNELS 3 Zrotation Xrotation Yrotation
                                        End Site
                                        {
                                            OFFSET  -2.582190   0.000000   0.000000
                                        }
                                    }
                                }
                            }
                            JOINT RightFinger1
                            {
                                OFFSET  -8.364480   0.000000   3.252850
                                CHANNELS 3 Zrotation Xrotation Yrotation
                                JOINT RightFinger11
                                {
                                    OFFSET  -4.646930   0.000000   0.000000
                                    CHANNELS 3 Zrotation Xrotation Yrotation
                                    JOINT RightFinger12
                                    {
                                        OFFSET  -2.323470   0.000000   0.000000
                                        CHANNELS 3 Zrotation Xrotation Yrotation
                                        End Site
                                        {
                                            OFFSET  -2.273050   0.000000   0.000000
                                        }
                                    }
                                }
                            }
                            JOINT RightFinger2
                            {
                                OFFSET  -8.364480   0.000000   1.078090
                                CHANNELS 3 Zrotation Xrotation Yrotation
                                JOINT RightFinger21
                                {
                                    OFFSET  -5.111620   0.000000   0.000000
                                    CHANNELS 3 Zrotation Xrotation Yrotation
                                    JOINT RightFinger22
                                    {
                                        OFFSET  -2.788160   0.000000   0.000000
                                        CHANNELS 3 Zrotation Xrotation Yrotation
                                        End Site
                                        {
                                            OFFSET  -2.727660   0.000000   0.000000
                                        }
                                    }
                                }
                            }
                            JOINT RightFinger3
                            {
                                OFFSET  -7.899780   0.000000  -1.078090
                                CHANNELS 3 Zrotation Xrotation Yrotation
                                JOINT RightFinger31
                                {
                                    OFFSET  -4.646930   0.000000   0.000000
                                    CHANNELS 3 Zrotation Xrotation Yrotation
                                    JOINT RightFinger32
                                    {
                                        OFFSET  -2.323470   0.000000   0.000000
                                        CHANNELS 3 Zrotation Xrotation Yrotation
                                        End Site
                                        {
                                            OFFSET  -2.273050   0.000000   0.000000
                                        }
                                    }
                                }
                            }
                            JOINT RightFinger4
                            {
                                OFFSET  -7.435090   0.000000  -3.252850
                                CHANNELS 3 Zrotation Xrotation Yrotation
                                JOINT RightFinger41
                                {
                                    OFFSET  -3.717550   0.000000   0.000000
                                    CHANNELS 3 Zrotation Xrotation Yrotation
                                    JOINT RightFinger42
                                    {
                                        OFFSET  -1.858770   0.000000   0.000000
                                        CHANNELS 3 Zrotation Xrotation Yrotation
                                        End Site
                                        {
                                            OFFSET  -1.818440   0.000000   0.000000
                                        }
                                    }
                                }
                            }
                        }
                    }
                }
            }
        }
    }
    JOINT LeftHip
    {
        OFFSET   9.783040   0.000000   0.000000
        CHANNELS 3 Zrotation Xrotation Yrotation
        JOINT LeftKnee
        {
            OFFSET   0.000032 -41.789100  -0.002222
            CHANNELS 3 Zrotation Xrotation Yrotation
            JOINT LeftAnkle
            {
                OFFSET   0.000087 -41.133200  -0.000135
                CHANNELS 3 Zrotation Xrotation Yrotation
                JOINT LeftToe
                {
                    OFFSET   0.000000  -6.358960  14.674500
                    CHANNELS 3 Zrotation Xrotation Yrotation
                    End Site
                    {
                        OFFSET   0.000000   0.000000   3.913200
                    }
                }
            }
        }
    }
    JOINT RightHip
    {
        OFFSET  -9.783040   0.000000   0.000000
        CHANNELS 3 Zrotation Xrotation Yrotation
        JOINT RightKnee
        {
            OFFSET   0.000047 -41.789100  -0.000896
            CHANNELS 3 Zrotation Xrotation Yrotation
            JOINT RightAnkle
            {
                OFFSET  -0.000117 -41.133300  -0.000248
                CHANNELS 3 Zrotation Xrotation Yrotation
                JOINT RightToe
                {
                    OFFSET   0.000000  -6.358970  14.674500
                    CHANNELS 3 Zrotation Xrotation Yrotation
                    End Site
                    {
                        OFFSET   0.000000   0.000000   3.913200
                    }
                }
            }
        }
    }
}
MOTION
Frames: 4
Frame Time:   0.016667
 -0.049744  89.565900  -0.186282  -0.770652  -1.409220   1.464930   0.411564   1.204440  -0.899458   0.842272   2.402230  -1.808150   0.901420   0.329516  -0.006208   1.481470   0.667197   3.869640  -3.181290   3.264580   3.398240 -74.097700  11.066300  -4.432800  -2.256700  -3.706080  -8.082970   0.330931  -3.240000   4.412890  38.247500  26.582800 -53.640200 -29.135800   0.000088   0.002854  -9.578370   0.006866   0.002738 -28.391500   2.825610  -5.209120 -23.332300  -0.006458  -0.002431 -16.332600  -0.004885  -0.004616 -26.540700  -0.519783   1.043440 -26.545400  -0.005734  -0.005983 -17.679200  -0.001879  -0.005254 -25.026000  -2.343900   4.999280 -25.128500  -0.008597  -0.004800 -16.735600  -0.003868  -0.004245 -25.085600  -3.309450   7.026380 -37.933400  -0.000249  -0.005329 -25.263700  -0.002136  -0.006403   3.162060   2.254900   4.974430  76.441200  -0.466359   3.233660   1.143250  -1.430140   5.771290  -6.801000  -3.815270   3.044420 -41.502800  34.589500  73.117000  25.671100   0.000902  -0.003541   7.835500  -0.002305  -0.001167  26.061400   7.114160  14.210500  22.049400  -0.000981   0.002795  15.433500  -0.008590   0.001486  25.107900   3.205140   6.812960  25.298500   0.003317  -0.004391  16.848800  -0.014852  -0.003452  25.796800   2.161840   4.444720  25.881100  -0.001359   0.001888  17.236800  -0.015418   0.001452  28.799800   1.429530   2.616850  43.248300  -0.000305   0.001023  28.803400   0.003036   0.000694   2.734070   3.534110   1.090130   0.755367   0.315789   7.209570  -5.165840  -2.064210   0.485542   0.000000   0.000000  -0.000000  -0.889212   2.033100  -2.754700   1.363970   1.754300  -9.439250  -2.417070  -2.891720  -3.534350   0.000000   0.000000   0.000000
 -0.064323  89.566000  -0.191017  -0.776185  -1.408870   1.407750   0.411291   1.210050  -0.916616   0.842173   2.413320  -1.842510   0.904587   0.329403  -0.006096   1.486490   0.667238   3.677530  -3.186890   3.264190   3.391500 -74.094600  11.097900  -4.411820  -2.257230  -3.726050  -8.051600   0.315136  -3.201780   4.413040  38.238700  26.566600 -53.645100 -29.144500   0.000083   0.002852  -9.578360   0.006868   0.002743 -28.391500   2.825610  -5.209380 -23.331800  -0.006456  -0.002431 -16.332200  -0.004886  -0.004615 -26.531200  -0.519783   1.043200 -26.535900  -0.005734  -0.005982 -17.672900  -0.001880  -0.005253 -25.009300  -2.342790   5.002510 -25.111800  -0.008596  -0.004799 -16.724400  -0.003869  -0.004244 -25.060600  -3.306970   7.029230 -37.895800  -0.000247  -0.005328 -25.238600  -0.002136  -0.006403   3.162480   2.242790   4.987160  76.410000  -0.440024   3.262340   1.132060  -1.423960   5.789790  -6.830240  -3.847030   3.029730 -41.492900  34.579500  73.095500  25.684200   0.000904  -0.003524   7.842050  -0.002311  -0.001172  26.066300   7.110370  14.200300  22.052500  -0.000980   0.002794  15.436200  -0.008591   0.001487  25.116200   3.205440   6.805430  25.306800   0.003320  -0.004391  16.854300  -0.014857  -0.003452  25.809900   2.161830   4.449200  25.894100  -0.001357   0.001887  17.245500  -0.015421   0.001451  28.810900   1.429720   2.612520  43.264900  -0.000302   0.001020  28.814500   0.003036   0.000693   2.744100   3.541950   1.081050   0.761315   0.306050   7.234710  -5.164590  -2.066450   0.526371  -0.000000   0.000000   0.000000  -0.877976   2.012880  -2.769860   1.362390   1.764920  -9.416970  -2.424750  -2.885740  -3.484120  -0.000000   0.000000   0.000000
 -0.088551  89.566200  -0.198998  -0.787384  -1.406390   1.304510   0.410764   1.218470  -0.943087   0.841818   2.429970  -1.895520   0.911847   0.329291  -0.005983   1.498390   0.667348   3.375950  -3.195380   3.263790   3.384750 -74.092200  11.148200  -4.380490  -2.257490  -3.755190  -7.997230   0.298094  -3.147430   4.413120  38.219600  26.533600 -53.648800 -29.156700   0.000075   0.002849  -9.578360   0.006870   0.002749 -28.391400   2.825600  -5.211180 -23.331300  -0.006451  -0.002430 -16.331900  -0.004888  -0.004611 -26.518200  -0.519784   1.041550 -26.523000  -0.005733  -0.005978 -17.664300  -0.001883  -0.005250 -24.985100  -2.339250   5.005740 -25.087400  -0.008593  -0.004797 -16.708200  -0.003871  -0.004243 -25.024800  -3.301230   7.032060 -37.841600  -0.000240  -0.005325 -25.202500  -0.002139  -0.006402   3.163240   2.223620   5.007120  76.357700  -0.400581   3.306990   1.113220  -1.414520   5.820850  -6.877830  -3.899250   3.007420 -41.483000  34.569600  73.074000  25.706900   0.000909  -0.003507   7.853440  -0.002317  -0.001178  26.078600   7.105120  14.182900  22.061100  -0.000978   0.002792  15.442800  -0.008592   0.001488  25.133000   3.205770   6.793030  25.323500   0.003324  -0.004393  16.865400  -0.014868  -0.003453  25.834000   2.161810   4.455110  25.918100  -0.001353   0.001885  17.261400  -0.015428   0.001449  28.832800   1.429910   2.603960  43.297800  -0.000299   0.001016  28.836400   0.003034   0.000691   2.762250   3.549790   1.071960   0.772006   0.296301   7.278110  -5.163740  -2.077100   0.595126   0.000000   0.000000   0.000000  -0.858733   1.982600  -2.787610   1.360220   1.775630  -9.375630  -2.437200  -2.874090  -3.401210   0.000000   0.000000   0.000000
 -0.107769  89.565800  -0.205623  -0.801240  -1.400160   1.203830   0.410171   1.223240  -0.959346   0.841062   2.439400  -1.928080   0.921811   0.333973  -0.005998   1.514790   0.676803   3.169140  -3.199540   3.264490   3.385300 -74.098900  11.191700  -4.364770  -2.255980  -3.768910  -7.945210   0.304585  -3.121080   4.412930  38.199200  26.491600 -53.637500 -29.162300   0.000073   0.002849  -9.580520   0.006858   0.002743 -28.393200   2.830220  -5.220030 -23.334500  -0.006447  -0.002427 -16.334200  -0.004890  -0.004603 -26.513900  -0.514945   1.031320 -26.518700  -0.005732  -0.005973 -17.661400  -0.001888  -0.005245 -24.971700  -2.332790   4.996660 -25.073800  -0.008589  -0.004793 -16.699100  -0.003875  -0.004239 -25.006300  -3.292970   7.022170 -37.813100  -0.000230  -0.005319 -25.183500  -0.002145  -0.006399   3.163900   2.210000   5.021400  76.314300  -0.378052   3.336290   1.097320  -1.409920   5.847190  -6.914150  -3.942210   2.994560 -41.472700  34.575200  73.079300  25.725600   0.000913  -0.003517   7.862760  -0.002307  -0.001171  26.098500   7.104250  14.169400  22.076700  -0.000978   0.002790  15.453800  -0.008587   0.001486  25.154500   3.204750   6.785190  25.344700   0.003325  -0.004396  16.879500  -0.014880  -0.003456  25.859400   2.161860   4.456780  25.943300  -0.001346   0.001879  17.278200  -0.015439   0.001444  28.860000   1.428600   2.593430  43.338400  -0.000301   0.001014  28.863400   0.003033   0.000688   2.779680   3.540160   1.078230   0.781705   0.323715   7.315450  -5.169050  -2.104310   0.651346  -0.000000   0.000000   0.000000  -0.840710   1.968340  -2.790610   1.361320   1.768050  -9.332370  -2.446480  -2.861100  -3.336670  -0.000000   0.000000   0.000000
